---
layout: anime

title: "Natsume Yuujinchou: Season 1-6 + OVAs + 2 Movies [COMPLETE]"
image: https://iili.io/d4Qiai7.jpg
mal: 4081
anidb: 5787
r720: false
r1080: true

desc: >-
  This is one of my favorite series. It's relaxing, no romance, and very heart warming. Each episode is a peaceful journey that typically ends on a good note. It may seem odd at first, but don't let that scare you away.
  <br><br>
  All seasons/ovas takes the video and audio from sergy_krs (excpt the last movie, Ishi Okoshi to Ayashiki Raihousha). Subtitles are mostly taken from tlacatlc6, which is normally sourced from Commie and mooshi, among others. I won't be doing 720p releases since there's no good 720p 10bit rips as far as I could find.

patches: true
patchinfo: Fixed S03E08 missing the last line of the episode

status: Complete
groups: sergey_krs, tlacatlc6, nogrp, mooshi, HorribleSubs, Commie, LINK
vidinfo: .mkv, h264 10-bit

size1080: ~1 GB / Episode @ 1080p (1920x1080) [sergey_krs], [LINK]
audio1080a: Japanese 2ch FLAC (Main Dialogue) [sergey_krs], [LINK]
subtitle1: English Dialogue (.ass) [various]

# oh man this was fun
links: [
  [
    "OVAs",
    [
      "Nyanko-sensei to Hajimete no Otsukai:",
      "https://nyaa.si/view/1019499",
      "https://anidex.info/torrent/131394",
      "https://animetosho.org/view/cyc-natsume-yuujinchou-nyanko-sensei-hajimete-no-otsukai.d131394",
      "https://animetorrents.me/torrent-details.php?torid=34912",
      "https://animebytes.tv/torrents.php?id=17131&torrentid=355800"
    ],
    [
      "Itsuka Yuki no Hi ni:",
      "https://nyaa.si/view/1019500",
      "https://anidex.info/torrent/131395",
      "https://animetosho.org/view/cyc-natsume-yuujinchou-itsuka-yuki-no-hi-ni.n1019500",
      "https://animetorrents.me/torrent-details.php?torid=34914",
      "https://animebytes.tv/torrents.php?id=17109&torrentid=355802"
    ]
  ],
  [
    "Season 1 (Ichi?)",
    "https://nyaa.si/view/1018060",
    "https://anidex.info/torrent/130407",
    "https://animetosho.org/view/cyc-natsume-yuujinchou-bd-1920x1080-x264-flac.n1018060",
    "https://animetorrents.me/torrent-details.php?torid=34786",
    "https://animebytes.tv/torrents.php?id=539&torrentid=354477"
  ],
  [
    "Season 2 (Zoku)",
    "https://nyaa.si/view/1018356",
    "https://anidex.info/torrent/130666",
    "https://animetosho.org/view/cyc-zoku-natsume-yuujinchou-bd-1080p-hi10-x264-flac.d130666",
    "https://animetorrents.me/torrent-details.php?torid=34815",
    "https://animebytes.tv/torrents.php?id=510&torrentid=354552"
  ],
  [
    "Season 3 (San)",
    "https://nyaa.si/view/1018695",
    "https://anidex.info/torrent/130889",
    "https://animetosho.org/view/cyc-natsume-yuujinchou-san-bd-1080p-hi10-x264-flac.d130889",
    "https://animetorrents.me/torrent-details.php?torid=34844",
    "https://animebytes.tv/torrents.php?id=8399&torrentid=354722"
  ],
  [
    "Season 4 (Shi)",
    "https://nyaa.si/view/1019039",
    "https://anidex.info/torrent/131135",
    "https://animetosho.org/view/cyc-natsume-yuujinchou-shi-bd-1080p-hi10-x264-flac.n1019039",
    "https://animetorrents.me/torrent-details.php?torid=34865",
    "https://animebytes.tv/torrents.php?id=9838&torrentid=354918"
  ],
  [
    "Season 5 (Go)",
    "https://nyaa.si/view/1019955",
    "https://anidex.info/torrent/131745",
    "https://animetosho.org/view/cyc-natsume-yuujinchou-go-bd-1080p-hi10-x264-flac.d131745",
    "https://animetorrents.me/torrent-details.php?torid=34955",
    "https://animebytes.tv/torrents.php?id=34051&torrentid=355350",
    "https://animebytes.tv/torrents.php?id=41749&torrentid=355354",
    "Specials/Episodes 12+13"
  ],
  [
    "Season 6 (Roku)",
    "https://nyaa.si/view/1020458",
    "https://anidex.info/torrent/132104",
    "https://animetosho.org/view/cyc-natsume-yuujinchou-roku-bd-1080p-hi10-x264-flac.d132104",
    "https://animetorrents.me/torrent-details.php?torid=34989",
    "https://animebytes.tv/torrents.php?id=38015&torrentid=355575",
    "https://animebytes.tv/torrents.php?id=47170&torrentid=355576",
    "Specials/Episodes 12+13"
  ],
  [
    "Movie: Ephemeral Bond (Utsusemi ni Musubu)",
    "https://nyaa.si/view/1204457",
    "https://anidex.info/torrent/290729",
    "https://animetosho.org/view/cyc-natsume-yuujinchou-movie-utsusemi-ni-musubu-bd.d290729",
    "https://animetorrents.me/torrent-details.php?torid=44491",
    "https://animebytes.tv/torrents.php?id=60382&torrentid=430373"
  ],
  [
    "The Stone Waker and the Strange Visitor (Ishi Okoshi to Ayashiki Raihousha)",
    "https://nyaa.si/view/1466724",
    "https://anidex.info/torrent/451251",
    "https://animetosho.org/view/cyc-natsume-yuujinchou-ishi-okoshi-ayashiki-raihousha-bd.n1466724",
    "https://animetorrents.me/torrent-details.php?torid=56722",
    "https://animebytes.tv/torrents.php?id=71525&torrentid=971873"
  ]
]

patch: https://mega.nz/file/YX5mDJpC#Yp8QPvs5tEzoP3zXRYv8VlZWQPA-gF0zuARfx41QTtE

github: https://github.com/cyc-anime/Natsume-Yuujinchou
---
General
Unique ID                                : 198267281528534109682113422718766497447 (0x9528E3B2EABC6F1BB500C272EE113EA7)
Complete name                            : [CyC] Natsume Yuujinchou 01 (BD 1080p Hi10 x264 FLAC) [006DCB15].mkv
Format                                   : Matroska
Format version                           : Version 4 / Version 2
File size                                : 1.31 GiB
Duration                                 : 23 min 52 s
Overall bit rate mode                    : Variable
Overall bit rate                         : 7 828 kb/s
Movie name                               : The Cat and the Book of Friends
Encoded date                             : UTC 2017-12-11 05:05:47
Writing application                      : mkvmerge v9.7.1 ('Pandemonium') 64bit
Writing library                          : libebml v1.3.4 + libmatroska v1.4.5
Attachments                              : ArnoPro-Regular.otf / EFN_OknoFont.ttf / FTLTLT_0.TTF / HOOTRG__.TTF / MKAbel.ttf / BAARS___.TTF

Video
ID                                       : 1
Format                                   : AVC
Format/Info                              : Advanced Video Codec
Format profile                           : High 10@L4.1
Format settings, CABAC                   : Yes
Format settings, RefFrames               : 4 frames
Codec ID                                 : V_MPEG4/ISO/AVC
Duration                                 : 23 min 52 s
Bit rate                                 : 7 148 kb/s
Width                                    : 1 920 pixels
Height                                   : 1 080 pixels
Display aspect ratio                     : 16:9
Frame rate mode                          : Constant
Frame rate                               : 23.976 (24000/1001) FPS
Color space                              : YUV
Chroma subsampling                       : 4:2:0
Bit depth                                : 10 bits
Scan type                                : Progressive
Bits/(Pixel*Frame)                       : 0.144
Stream size                              : 1.19 GiB (91%)
Writing library                          : x264 core 133 r2334 a3ac64b
Encoding settings                        : cabac=1 / ref=4 / deblock=1:-2:-2 / analyse=0x3:0x133 / me=umh / subme=9 / psy=1 / psy_rd=0.70:0.00 / mixed_ref=1 / me_range=32 / chroma_me=1 / trellis=2 / 8x8dct=1 / cqm=0 / deadzone=21,11 / fast_pskip=1 / chroma_qp_offset=-2 / threads=6 / lookahead_threads=1 / sliced_threads=0 / nr=0 / decimate=0 / interlaced=0 / bluray_compat=0 / constrained_intra=0 / bframes=8 / b_pyramid=2 / b_adapt=2 / b_bias=0 / direct=3 / weightb=1 / open_gop=0 / weightp=2 / keyint=240 / keyint_min=25 / scenecut=40 / intra_refresh=0 / rc=crf / mbtree=0 / crf=16.5 / qcomp=0.60 / qpmin=8 / qpmax=38 / qpstep=4 / ip_ratio=1.40 / pb_ratio=1.30 / aq=1:1.00
Language                                 : Japanese
Default                                  : Yes
Forced                                   : No

Audio
ID                                       : 2
Format                                   : FLAC
Format/Info                              : Free Lossless Audio Codec
Codec ID                                 : A_FLAC
Duration                                 : 23 min 52 s
Bit rate mode                            : Variable
Bit rate                                 : 675 kb/s
Channel(s)                               : 2 channels
Channel positions                        : Front: L R
Sampling rate                            : 48.0 kHz
Frame rate                               : 11.719 FPS (4096 SPF)
Bit depth                                : 16 bits
Stream size                              : 115 MiB (9%)
Writing library                          : libFLAC 1.2.1 (UTC 2007-09-17)
Language                                 : Japanese
Default                                  : Yes
Forced                                   : No

Text
ID                                       : 3
Format                                   : ASS
Codec ID                                 : S_TEXT/ASS
Codec ID/Info                            : Advanced Sub Station Alpha
Duration                                 : 23 min 45 s
Bit rate                                 : 166 b/s
Count of elements                        : 475
Compression mode                         : Lossless
Stream size                              : 29.0 KiB (0%)
Title                                    : (Modified) moo-shi
Language                                 : English
Default                                  : Yes
Forced                                   : No

Menu
00:00:00.000                             : en:Opening
00:01:31.056                             : en:Part A
00:10:48.054                             : en:Part B
00:22:05.990                             : en:Ending
00:23:36.021                             : en:Preview
===
General
Unique ID                                : 235871298887084159879617187595254501739 (0xB17328E5B1088CDDA71337FF40A8116B)
Complete name                            : [CyC] Zoku Natsume Yuujinchou 01 (BD 1080p Hi10 x264 FLAC) [892EBBAA].mkv
Format                                   : Matroska
Format version                           : Version 4 / Version 2
File size                                : 1.34 GiB
Duration                                 : 23 min 52 s
Overall bit rate mode                    : Variable
Overall bit rate                         : 8 048 kb/s
Movie name                               : Stolen Book Of Friends
Encoded date                             : UTC 2017-12-22 16:05:48
Writing application                      : mkvmerge v9.7.1 ('Pandemonium') 64bit
Writing library                          : libebml v1.3.4 + libmatroska v1.4.5
Attachments                              : Buda-Light.ttf / EFN_OknoFont.ttf / FTLTLT_0.TTF / MKAbel.ttf / Square_Kids.ttf / BAARS___.TTF

Video
ID                                       : 1
Format                                   : AVC
Format/Info                              : Advanced Video Codec
Format profile                           : High 10@L4.1
Format settings, CABAC                   : Yes
Format settings, RefFrames               : 4 frames
Codec ID                                 : V_MPEG4/ISO/AVC
Duration                                 : 23 min 52 s
Bit rate                                 : 7 368 kb/s
Width                                    : 1 920 pixels
Height                                   : 1 080 pixels
Display aspect ratio                     : 16:9
Frame rate mode                          : Constant
Frame rate                               : 23.976 (24000/1001) FPS
Color space                              : YUV
Chroma subsampling                       : 4:2:0
Bit depth                                : 10 bits
Scan type                                : Progressive
Bits/(Pixel*Frame)                       : 0.148
Stream size                              : 1.23 GiB (92%)
Writing library                          : x264 core 133 r2334 a3ac64b
Encoding settings                        : cabac=1 / ref=4 / deblock=1:-2:-2 / analyse=0x3:0x133 / me=umh / subme=9 / psy=1 / psy_rd=0.70:0.00 / mixed_ref=1 / me_range=32 / chroma_me=1 / trellis=2 / 8x8dct=1 / cqm=0 / deadzone=21,11 / fast_pskip=1 / chroma_qp_offset=-2 / threads=6 / lookahead_threads=1 / sliced_threads=0 / nr=0 / decimate=0 / interlaced=0 / bluray_compat=0 / constrained_intra=0 / bframes=8 / b_pyramid=2 / b_adapt=2 / b_bias=0 / direct=3 / weightb=1 / open_gop=0 / weightp=2 / keyint=240 / keyint_min=25 / scenecut=40 / intra_refresh=0 / rc=crf / mbtree=0 / crf=16.5 / qcomp=0.60 / qpmin=8 / qpmax=38 / qpstep=4 / ip_ratio=1.40 / pb_ratio=1.30 / aq=1:1.00
Language                                 : Japanese
Default                                  : Yes
Forced                                   : No

Audio
ID                                       : 2
Format                                   : FLAC
Format/Info                              : Free Lossless Audio Codec
Codec ID                                 : A_FLAC
Duration                                 : 23 min 52 s
Bit rate mode                            : Variable
Bit rate                                 : 675 kb/s
Channel(s)                               : 2 channels
Channel positions                        : Front: L R
Sampling rate                            : 48.0 kHz
Frame rate                               : 11.719 FPS (4096 SPF)
Bit depth                                : 16 bits
Stream size                              : 115 MiB (8%)
Writing library                          : libFLAC 1.2.1 (UTC 2007-09-17)
Language                                 : Japanese
Default                                  : Yes
Forced                                   : No

Text
ID                                       : 3
Format                                   : ASS
Codec ID                                 : S_TEXT/ASS
Codec ID/Info                            : Advanced Sub Station Alpha
Duration                                 : 23 min 49 s
Bit rate                                 : 781 b/s
Count of elements                        : 984
Compression mode                         : Lossless
Stream size                              : 136 KiB (0%)
Title                                    : (Modified) tlacatlc6
Language                                 : English
Default                                  : Yes
Forced                                   : No

Menu
00:00:00.000                             : en:Opening
00:01:31.040                             : en:Part A
00:10:46.052                             : en:Part B
00:22:06.007                             : en:Ending
00:23:36.022                             : en:Preview
===
General
Unique ID : 176676483850640119561194682069498537505 (0x84EAA72FB4F79883A55C8BA76B1D2621)
Complete name : [CyC] Natsume Yuujinchou San 01 (BD 1080p Hi10 x264 FLAC) [81DD3441].mkv
Format : Matroska
Format version : Version 4 / Version 2
File size : 1.16 GiB
Duration : 24 min 17 s
Overall bit rate mode : Variable
Overall bit rate : 6 833 kb/s
Movie name : The Name of a Monster
Encoded date : UTC 2017-12-30 18:25:13
Writing application : mkvmerge v9.7.1 ('Pandemonium') 64bit
Writing library : libebml v1.3.4 + libmatroska v1.4.5
Attachments : VRINDAB.TTF / Square_Engine_150_Simplex.ttf / Square_Kids.ttf / ArnoPro-Regular.otf / BAARS___.TTF / EFN_OknoFont.ttf / FTLTLT_0.TTF / MKAbel.ttf

Video
ID : 1
Format : AVC
Format/Info : Advanced Video Codec
Format profile : High 10@L4.1
Format settings, CABAC : Yes
Format settings, RefFrames : 4 frames
Codec ID : V_MPEG4/ISO/AVC
Duration : 24 min 17 s
Bit rate : 6 188 kb/s
Width : 1 920 pixels
Height : 1 080 pixels
Display aspect ratio : 16:9
Frame rate mode : Constant
Frame rate : 23.976 (24000/1001) FPS
Color space : YUV
Chroma subsampling : 4:2:0
Bit depth : 10 bits
Scan type : Progressive
Bits/(Pixel*Frame) : 0.124
Stream size : 1.05 GiB (91%)
Writing library : x264 core 133 r2334 a3ac64b
Encoding settings : cabac=1 / ref=4 / deblock=1:-2:-2 / analyse=0x3:0x133 / me=umh / subme=9 / psy=1 / psy_rd=0.70:0.00 / mixed_ref=1 / me_range=32 / chroma_me=1 / trellis=2 / 8x8dct=1 / cqm=0 / deadzone=21,11 / fast_pskip=1 / chroma_qp_offset=-2 / threads=6 / lookahead_threads=1 / sliced_threads=0 / nr=0 / decimate=0 / interlaced=0 / bluray_compat=0 / constrained_intra=0 / bframes=8 / b_pyramid=2 / b_adapt=2 / b_bias=0 / direct=3 / weightb=1 / open_gop=0 / weightp=2 / keyint=240 / keyint_min=25 / scenecut=40 / intra_refresh=0 / rc=crf / mbtree=0 / crf=16.5 / qcomp=0.60 / qpmin=8 / qpmax=38 / qpstep=4 / ip_ratio=1.40 / pb_ratio=1.30 / aq=1:1.00
Language : Japanese
Default : Yes
Forced : No

Audio
ID : 2
Format : FLAC
Format/Info : Free Lossless Audio Codec
Codec ID : A_FLAC
Duration : 24 min 17 s
Bit rate mode : Variable
Bit rate : 638 kb/s
Channel(s) : 2 channels
Channel positions : Front: L R
Sampling rate : 48.0 kHz
Frame rate : 11.719 FPS (4096 SPF)
Bit depth : 16 bits
Stream size : 111 MiB (9%)
Writing library : libFLAC 1.2.1 (UTC 2007-09-17)
Language : Japanese
Default : Yes
Forced : No

Text
ID : 3
Format : ASS
Codec ID : S_TEXT/ASS
Codec ID/Info : Advanced Sub Station Alpha
Duration : 24 min 14 s
Bit rate : 180 b/s
Count of elements : 542
Compression mode : Lossless
Stream size : 32.0 KiB (0%)
Title : (Modified) NoGrp
Language : English
Default : Yes
Forced : No

Menu
00:00:00.000 : en:Opening
00:01:31.048 : en:Part A
00:11:15.048 : en:Part B
00:22:30.973 : en:Ending
00:24:01.021 : en:Preview
===
General
Unique ID : 191750762758406172043863570459990542528 (0x9041DA849528B43A9580BA93818DC8C0)
Complete name : [CyC] Natsume Yuujinchou Shi 01 (BD 1080p Hi10 x264 FLAC) [1C3C1194].mkv
Format : Matroska
Format version : Version 4 / Version 2
File size : 1.18 GiB
Duration : 24 min 17 s
Overall bit rate mode : Variable
Overall bit rate : 6 964 kb/s
Movie name : Natsume Captured
Encoded date : UTC 2018-01-04 04:19:33
Writing application : mkvmerge v9.7.1 ('Pandemonium') 64bit
Writing library : libebml v1.3.4 + libmatroska v1.4.5
Attachments : BAARS___.TTF / Buda-Light.ttf / EFN_OknoFont.ttf / FTLTLT_0.TTF / MKAbel.ttf / Square_Engine_150_Simplex.ttf / Square_Kids.ttf

Video
ID : 1
Format : AVC
Format/Info : Advanced Video Codec
Format profile : High 10@L4.1
Format settings, CABAC : Yes
Format settings, RefFrames : 4 frames
Codec ID : V_MPEG4/ISO/AVC
Duration : 24 min 17 s
Bit rate : 6 334 kb/s
Width : 1 920 pixels
Height : 1 080 pixels
Display aspect ratio : 16:9
Frame rate mode : Constant
Frame rate : 23.976 (24000/1001) FPS
Color space : YUV
Chroma subsampling : 4:2:0
Bit depth : 10 bits
Scan type : Progressive
Bits/(Pixel*Frame) : 0.127
Stream size : 1.07 GiB (91%)
Writing library : x264 core 133 r2334 a3ac64b
Encoding settings : cabac=1 / ref=4 / deblock=1:-2:-2 / analyse=0x3:0x133 / me=umh / subme=9 / psy=1 / psy_rd=0.70:0.00 / mixed_ref=1 / me_range=32 / chroma_me=1 / trellis=2 / 8x8dct=1 / cqm=0 / deadzone=21,11 / fast_pskip=1 / chroma_qp_offset=-2 / threads=6 / lookahead_threads=1 / sliced_threads=0 / nr=0 / decimate=0 / interlaced=0 / bluray_compat=0 / constrained_intra=0 / bframes=8 / b_pyramid=2 / b_adapt=2 / b_bias=0 / direct=3 / weightb=1 / open_gop=0 / weightp=2 / keyint=240 / keyint_min=25 / scenecut=40 / intra_refresh=0 / rc=crf / mbtree=0 / crf=16.5 / qcomp=0.60 / qpmin=8 / qpmax=38 / qpstep=4 / ip_ratio=1.40 / pb_ratio=1.30 / aq=1:1.00
Language : Japanese
Default : Yes
Forced : No

Audio
ID : 2
Format : FLAC
Format/Info : Free Lossless Audio Codec
Codec ID : A_FLAC
Duration : 24 min 17 s
Bit rate mode : Variable
Bit rate : 626 kb/s
Channel(s) : 2 channels
Channel positions : Front: L R
Sampling rate : 48.0 kHz
Frame rate : 11.719 FPS (4096 SPF)
Bit depth : 16 bits
Stream size : 109 MiB (9%)
Writing library : libFLAC 1.2.1 (UTC 2007-09-17)
Language : Japanese
Default : Yes
Forced : No

Text
ID : 3
Format : ASS
Codec ID : S_TEXT/ASS
Codec ID/Info : Advanced Sub Station Alpha
Duration : 24 min 12 s
Bit rate : 226 b/s
Count of elements : 561
Compression mode : Lossless
Stream size : 40.1 KiB (0%)
Title : (Modified) tlacatlc6
Language : English
Default : Yes
Forced : No

Menu
00:00:00.000 : en:Opening
00:01:31.049 : en:Part A
00:12:47.057 : en:Part B
00:22:31.016 : en:Ending
00:24:01.064 : en:Preview
===
General
Unique ID : 219194094774941663676497410307961079232 (0xA4E73F405F46A5F0A44D0FC97B1345C0)
Complete name : [CyC] Natsume Yuujinchou Go 01 (BD 1080p Hi10 x264 FLAC) [0B333703].mkv
Format : Matroska
Format version : Version 4 / Version 2
File size : 1.43 GiB
Duration : 23 min 52 s
Overall bit rate mode : Variable
Overall bit rate : 8 593 kb/s
Movie name : Unchanging Form
Encoded date : UTC 2018-01-10 16:57:05
Writing application : mkvmerge v9.7.1 ('Pandemonium') 64bit
Writing library : libebml v1.3.4 + libmatroska v1.4.5
Attachments : ArnoPro-Regular.otf / BAARS___.TTF / EFN_OknoFont.ttf / FTLTLT_0.TTF / MKAbel.ttf / chapters.xml / MISTRAL.TTF

Video
ID : 1
Format : AVC
Format/Info : Advanced Video Codec
Format profile : High 10@L4.1
Format settings, CABAC : Yes
Format settings, RefFrames : 4 frames
Codec ID : V_MPEG4/ISO/AVC
Duration : 23 min 52 s
Bit rate : 7 226 kb/s
Width : 1 920 pixels
Height : 1 080 pixels
Display aspect ratio : 16:9
Frame rate mode : Constant
Frame rate : 23.976 (24000/1001) FPS
Color space : YUV
Chroma subsampling : 4:2:0
Bit depth : 10 bits
Scan type : Progressive
Bits/(Pixel*Frame) : 0.145
Stream size : 1.20 GiB (84%)
Writing library : x264 core 150 r2833 df79067
Encoding settings : cabac=1 / ref=4 / deblock=1:-2:-2 / analyse=0x3:0x133 / me=umh / subme=9 / psy=1 / psy_rd=0.70:0.00 / mixed_ref=1 / me_range=32 / chroma_me=1 / trellis=2 / 8x8dct=1 / cqm=0 / deadzone=21,11 / fast_pskip=1 / chroma_qp_offset=-2 / threads=6 / lookahead_threads=1 / sliced_threads=0 / nr=0 / decimate=0 / interlaced=0 / bluray_compat=0 / constrained_intra=0 / bframes=8 / b_pyramid=2 / b_adapt=2 / b_bias=0 / direct=3 / weightb=1 / open_gop=0 / weightp=2 / keyint=240 / keyint_min=25 / scenecut=40 / intra_refresh=0 / rc=crf / mbtree=0 / crf=16.3 / qcomp=0.60 / qpmin=8 / qpmax=38 / qpstep=4 / ip_ratio=1.40 / pb_ratio=1.30 / aq=1:1.00
Language : Japanese
Default : Yes
Forced : No
Color range : Limited
Color primaries : BT.709
Transfer characteristics : BT.709
Matrix coefficients : BT.709

Audio
ID : 2
Format : FLAC
Format/Info : Free Lossless Audio Codec
Codec ID : A_FLAC
Duration : 23 min 52 s
Bit rate mode : Variable
Bit rate : 1 359 kb/s
Channel(s) : 2 channels
Channel positions : Front: L R
Sampling rate : 48.0 kHz
Frame rate : 11.719 FPS (4096 SPF)
Bit depth : 24 bits
Stream size : 232 MiB (16%)
Writing library : libFLAC 1.2.1 (UTC 2007-09-17)
Language : Japanese
Default : Yes
Forced : No

Text
ID : 3
Format : ASS
Codec ID : S_TEXT/ASS
Codec ID/Info : Advanced Sub Station Alpha
Duration : 23 min 41 s
Bit rate : 891 b/s
Count of elements : 1025
Compression mode : Lossless
Stream size : 155 KiB (0%)
Title : (Modified) Commie
Language : English
Default : Yes
Forced : No

Menu
00:00:00.000 : en:Opening
00:01:30.048 : en:Part A
00:10:19.118 : en:Part B
00:22:05.074 : en:Ending
00:23:35.122 : en:Preview
===
General
Unique ID : 202170209509994024041255878268234998635 (0x981890E7B972CC3DB1817C873BE7A36B)
Complete name : [CyC] Natsume Yuujinchou Roku 01 (BD 1080p Hi10 x264 FLAC) [B111F798].mkv
Format : Matroska
Format version : Version 4 / Version 2
File size : 1.50 GiB
Duration : 23 min 52 s
Overall bit rate mode : Variable
Overall bit rate : 9 008 kb/s
Movie name : The Days Eater
Encoded date : UTC 2018-03-27 15:17:11
Writing application : mkvmerge v9.7.1 ('Pandemonium') 64bit
Writing library : libebml v1.3.4 + libmatroska v1.4.5
Attachments : MISTRAL.TTF / BAARS___.TTF / EFN_OknoFont.ttf / FTLTLT_0.TTF / MKAbel.ttf / ArnoPro-Regular.otf

Video
ID : 1
Format : AVC
Format/Info : Advanced Video Codec
Format profile : High 10@L4.1
Format settings : CABAC / 4 Ref Frames
Format settings, CABAC : Yes
Format settings, RefFrames : 4 frames
Codec ID : V_MPEG4/ISO/AVC
Duration : 23 min 52 s
Bit rate : 7 670 kb/s
Width : 1 920 pixels
Height : 1 080 pixels
Display aspect ratio : 16:9
Frame rate mode : Constant
Frame rate : 23.976 (24000/1001) FPS
Color space : YUV
Chroma subsampling : 4:2:0
Bit depth : 10 bits
Scan type : Progressive
Bits/(Pixel*Frame) : 0.154
Stream size : 1.28 GiB (85%)
Writing library : x264 core 150 r2833 df79067
Encoding settings : cabac=1 / ref=4 / deblock=1:-2:-2 / analyse=0x3:0x133 / me=umh / subme=9 / psy=1 / psy_rd=0.70:0.00 / mixed_ref=1 / me_range=32 / chroma_me=1 / trellis=2 / 8x8dct=1 / cqm=0 / deadzone=21,11 / fast_pskip=1 / chroma_qp_offset=-2 / threads=6 / lookahead_threads=1 / sliced_threads=0 / nr=0 / decimate=0 / interlaced=0 / bluray_compat=0 / constrained_intra=0 / bframes=8 / b_pyramid=2 / b_adapt=2 / b_bias=0 / direct=3 / weightb=1 / open_gop=0 / weightp=2 / keyint=240 / keyint_min=25 / scenecut=40 / intra_refresh=0 / rc=crf / mbtree=0 / crf=16.3 / qcomp=0.60 / qpmin=8 / qpmax=38 / qpstep=4 / ip_ratio=1.40 / pb_ratio=1.30 / aq=1:1.00
Language : Japanese
Default : Yes
Forced : No
Color range : Limited
Color primaries : BT.709
Transfer characteristics : BT.709
Matrix coefficients : BT.709

Audio
ID : 2
Format : FLAC
Format/Info : Free Lossless Audio Codec
Codec ID : A_FLAC
Duration : 23 min 52 s
Bit rate mode : Variable
Bit rate : 1 331 kb/s
Channel(s) : 2 channels
Channel positions : Front: L R
Sampling rate : 48.0 kHz
Frame rate : 11.719 FPS (4096 SPF)
Bit depth : 24 bits
Stream size : 227 MiB (15%)
Writing library : libFLAC 1.2.1 (UTC 2007-09-17)
Language : Japanese
Default : Yes
Forced : No

Text
ID : 3
Format : ASS
Codec ID : S_TEXT/ASS
Codec ID/Info : Advanced Sub Station Alpha
Duration : 23 min 40 s
Bit rate : 411 b/s
Count of elements : 619
Compression mode : Lossless
Stream size : 71.4 KiB (0%)
Title : (Modified) Commie
Language : English
Default : Yes
Forced : No

Menu
00:00:00.000 : en:OP
00:01:30.020 : en:Part A
00:14:16.080 : en:Part B
00:22:05.090 : en:ED
00:23:35.140 : en:Preview
===
General
Unique ID                                : 209855626282599079307695099766415049383 (0x9DE0B9350A4B8F789C5DAB713BEC42A7)
Complete name                            : [CyC] Natsume Yuujinchou - Nyanko-sensei to Hajimete no Otsukai (BD 1080p Hi10 x264 FLAC) [AA8FD0B3].mkv
Format                                   : Matroska
Format version                           : Version 4 / Version 2
File size                                : 1.25 GiB
Duration                                 : 22 min 36 s
Overall bit rate mode                    : Variable
Overall bit rate                         : 7 932 kb/s
Movie name                               : Nyanko-Sensei's First Errand
Encoded date                             : UTC 2018-03-19 22:02:07
Writing application                      : mkvmerge v9.7.1 ('Pandemonium') 64bit
Writing library                          : libebml v1.3.4 + libmatroska v1.4.5
Attachments                              : BAARS___.TTF / EFN_OknoFont.ttf / FTLTLT_0.TTF / ankecallig-fg.ttf / Antipasto_regular.otf / Ubuntu.ttf

Video
ID                                       : 1
Format                                   : AVC
Format/Info                              : Advanced Video Codec
Format profile                           : High 10@L4.1
Format settings, CABAC                   : Yes
Format settings, RefFrames               : 4 frames
Codec ID                                 : V_MPEG4/ISO/AVC
Duration                                 : 22 min 36 s
Bit rate                                 : 6 495 kb/s
Width                                    : 1 920 pixels
Height                                   : 1 080 pixels
Display aspect ratio                     : 16:9
Frame rate mode                          : Constant
Frame rate                               : 23.976 (24000/1001) FPS
Color space                              : YUV
Chroma subsampling                       : 4:2:0
Bit depth                                : 10 bits
Scan type                                : Progressive
Bits/(Pixel*Frame)                       : 0.131
Stream size                              : 1.03 GiB (82%)
Writing library                          : x264 core 133 r2334 a3ac64b
Encoding settings                        : cabac=1 / ref=4 / deblock=1:-2:-2 / analyse=0x3:0x133 / me=umh / subme=9 / psy=1 / psy_rd=0.70:0.00 / mixed_ref=1 / me_range=32 / chroma_me=1 / trellis=2 / 8x8dct=1 / cqm=0 / deadzone=21,11 / fast_pskip=1 / chroma_qp_offset=-2 / threads=6 / lookahead_threads=1 / sliced_threads=0 / nr=0 / decimate=0 / interlaced=0 / bluray_compat=0 / constrained_intra=0 / bframes=8 / b_pyramid=2 / b_adapt=2 / b_bias=0 / direct=3 / weightb=1 / open_gop=0 / weightp=2 / keyint=240 / keyint_min=25 / scenecut=40 / intra_refresh=0 / rc=crf / mbtree=0 / crf=16.5 / qcomp=0.60 / qpmin=8 / qpmax=38 / qpstep=4 / ip_ratio=1.40 / pb_ratio=1.30 / aq=1:1.00
Language                                 : Japanese
Default                                  : Yes
Forced                                   : No

Audio
ID                                       : 2
Format                                   : FLAC
Format/Info                              : Free Lossless Audio Codec
Codec ID                                 : A_FLAC
Duration                                 : 22 min 36 s
Bit rate mode                            : Variable
Bit rate                                 : 1 431 kb/s
Channel(s)                               : 2 channels
Channel positions                        : Front: L R
Sampling rate                            : 48.0 kHz
Frame rate                               : 11.719 FPS (4096 SPF)
Bit depth                                : 24 bits
Stream size                              : 231 MiB (18%)
Writing library                          : libFLAC 1.2.1 (UTC 2007-09-17)
Language                                 : Japanese
Default                                  : Yes
Forced                                   : No

Text
ID                                       : 3
Format                                   : ASS
Codec ID                                 : S_TEXT/ASS
Codec ID/Info                            : Advanced Sub Station Alpha
Duration                                 : 20 min 35 s
Bit rate                                 : 124 b/s
Count of elements                        : 385
Compression mode                         : Lossless
Stream size                              : 18.7 KiB (0%)
Title                                    : (Modified) esc
Language                                 : English
Default                                  : Yes
Forced                                   : No

Menu
00:00:00.000                             : en:Part A
00:10:10.021                             : en:Part B
00:21:00.593                             : en:Ending
===
General
Unique ID                                : 193814125287710120371849429267855283058 (0x91CF3E251AF54EFAB332B218FB419372)
Complete name                            : [CyC] Natsume Yuujinchou - Itsuka Yuki no Hi ni (BD 1080p Hi10 x264 FLAC) [83929BB3].mkv
Format                                   : Matroska
Format version                           : Version 4 / Version 2
File size                                : 1.19 GiB
Duration                                 : 22 min 36 s
Overall bit rate mode                    : Variable
Overall bit rate                         : 7 557 kb/s
Movie name                               : Sometime on a Snowy Day
Encoded date                             : UTC 2018-03-19 22:24:12
Writing application                      : mkvmerge v9.7.1 ('Pandemonium') 64bit
Writing library                          : libebml v1.3.4 + libmatroska v1.4.5
Attachments                              : BAARS___.TTF / EFN_OknoFont.ttf / FTLTLT_0.TTF / Hand of Diesel.ttf

Video
ID                                       : 1
Format                                   : AVC
Format/Info                              : Advanced Video Codec
Format profile                           : High 10@L4.1
Format settings, CABAC                   : Yes
Format settings, RefFrames               : 4 frames
Codec ID                                 : V_MPEG4/ISO/AVC
Duration                                 : 22 min 36 s
Bit rate                                 : 6 249 kb/s
Width                                    : 1 920 pixels
Height                                   : 1 080 pixels
Display aspect ratio                     : 16:9
Frame rate mode                          : Constant
Frame rate                               : 23.976 (24000/1001) FPS
Color space                              : YUV
Chroma subsampling                       : 4:2:0
Bit depth                                : 10 bits
Scan type                                : Progressive
Bits/(Pixel*Frame)                       : 0.126
Stream size                              : 1 010 MiB (83%)
Writing library                          : x264 core 133 r2334 a3ac64b
Encoding settings                        : cabac=1 / ref=4 / deblock=1:-2:-2 / analyse=0x3:0x133 / me=umh / subme=9 / psy=1 / psy_rd=0.70:0.00 / mixed_ref=1 / me_range=32 / chroma_me=1 / trellis=2 / 8x8dct=1 / cqm=0 / deadzone=21,11 / fast_pskip=1 / chroma_qp_offset=-2 / threads=6 / lookahead_threads=1 / sliced_threads=0 / nr=0 / decimate=0 / interlaced=0 / bluray_compat=0 / constrained_intra=0 / bframes=8 / b_pyramid=2 / b_adapt=2 / b_bias=0 / direct=3 / weightb=1 / open_gop=0 / weightp=2 / keyint=240 / keyint_min=25 / scenecut=40 / intra_refresh=0 / rc=crf / mbtree=0 / crf=16.5 / qcomp=0.60 / qpmin=8 / qpmax=38 / qpstep=4 / ip_ratio=1.40 / pb_ratio=1.30 / aq=1:1.00
Language                                 : Japanese
Default                                  : Yes
Forced                                   : No

Audio
ID                                       : 2
Format                                   : FLAC
Format/Info                              : Free Lossless Audio Codec
Codec ID                                 : A_FLAC
Duration                                 : 22 min 36 s
Bit rate mode                            : Variable
Bit rate                                 : 1 305 kb/s
Channel(s)                               : 2 channels
Channel positions                        : Front: L R
Sampling rate                            : 48.0 kHz
Frame rate                               : 11.719 FPS (4096 SPF)
Bit depth                                : 24 bits
Stream size                              : 211 MiB (17%)
Writing library                          : libFLAC 1.2.1 (UTC 2007-09-17)
Language                                 : Japanese
Default                                  : Yes
Forced                                   : No

Text
ID                                       : 3
Format                                   : ASS
Codec ID                                 : S_TEXT/ASS
Codec ID/Info                            : Advanced Sub Station Alpha
Duration                                 : 20 min 41 s
Bit rate                                 : 122 b/s
Count of elements                        : 342
Compression mode                         : Lossless
Stream size                              : 18.5 KiB (0%)
Title                                    : (Modified) CommieSubs
Language                                 : English
Default                                  : Yes
Forced                                   : No

Menu
00:00:00.000                             : en:Part A
00:10:05.021                             : en:Part B
00:21:00.092                             : en:Ending
===
General
Unique ID                                : 220856318726601769389769334123336416723 (0xA62761383B2D2B3096854272A1A1BDD3)
Complete name                            : [CyC] Natsume Yuujinchou Movie - Utsusemi ni Musubu (BD 1080p Hi10 x264 FLAC) [9AF44D02].mkv
Format                                   : Matroska
Format version                           : Version 4
File size                                : 6.17 GiB
Duration                                 : 1 h 44 min
Overall bit rate mode                    : Variable
Overall bit rate                         : 8 456 kb/s
Movie name                               : Ephemeral Bond
Encoded date                             : UTC 2019-12-16 00:18:24
Writing application                      : mkvmerge v9.7.1 ('Pandemonium') 64bit
Writing library                          : libebml v1.3.4 + libmatroska v1.4.5
Attachments                              : BAARS___.TTF / Brotherhood.ttf / CALIFR.TTF / IwaMinPro-Lt-Madoka_0.ttf / DK Cool Crayon.ttf / Just tell me what regular (Version 2).otf / Holden-Fat.ttf / ArnoPro-Regular.otf / SNsanafonKazariV270.ttf / sharpie-stylie.ttf / CALIST.TTF / Brush Strokes_6.ttf / TragicMarker.otf / Polo Brush.ttf / Gingerline DEMO.otf

Video
ID                                       : 1
Format                                   : AVC
Format/Info                              : Advanced Video Codec
Format profile                           : High 10@L4.1
Format settings                          : CABAC / 4 Ref Frames
Format settings, CABAC                   : Yes
Format settings, Reference frames        : 4 frames
Codec ID                                 : V_MPEG4/ISO/AVC
Duration                                 : 1 h 44 min
Bit rate                                 : 5 768 kb/s
Width                                    : 1 920 pixels
Height                                   : 1 080 pixels
Display aspect ratio                     : 16:9
Frame rate mode                          : Constant
Frame rate                               : 23.976 (24000/1001) FPS
Color space                              : YUV
Chroma subsampling                       : 4:2:0
Bit depth                                : 10 bits
Scan type                                : Progressive
Bits/(Pixel*Frame)                       : 0.116
Stream size                              : 4.21 GiB (68%)
Writing library                          : x264 core 150 r2833 df79067
Encoding settings                        : cabac=1 / ref=4 / deblock=1:-2:-2 / analyse=0x3:0x133 / me=umh / subme=9 / psy=1 / psy_rd=0.70:0.00 / mixed_ref=1 / me_range=32 / chroma_me=1 / trellis=2 / 8x8dct=1 / cqm=0 / deadzone=21,11 / fast_pskip=1 / chroma_qp_offset=-2 / threads=6 / lookahead_threads=1 / sliced_threads=0 / nr=0 / decimate=0 / interlaced=0 / bluray_compat=0 / constrained_intra=0 / bframes=8 / b_pyramid=2 / b_adapt=2 / b_bias=0 / direct=3 / weightb=1 / open_gop=0 / weightp=2 / keyint=240 / keyint_min=25 / scenecut=40 / intra_refresh=0 / rc=crf / mbtree=0 / crf=16.3 / qcomp=0.60 / qpmin=8 / qpmax=38 / qpstep=4 / ip_ratio=1.40 / pb_ratio=1.30 / aq=1:1.00
Language                                 : Japanese
Default                                  : Yes
Forced                                   : No
Color range                              : Limited
Color primaries                          : BT.709
Transfer characteristics                 : BT.709
Matrix coefficients                      : BT.709

Audio
ID                                       : 2
Format                                   : FLAC
Format/Info                              : Free Lossless Audio Codec
Codec ID                                 : A_FLAC
Duration                                 : 1 h 44 min
Bit rate mode                            : Variable
Bit rate                                 : 2 673 kb/s
Channel(s)                               : 6 channels
Channel layout                           : L R C LFE Ls Rs
Sampling rate                            : 48.0 kHz
Frame rate                               : 11.719 FPS (4096 SPF)
Bit depth                                : 24 bits
Compression mode                         : Lossless
Stream size                              : 1.95 GiB (32%)
Writing library                          : libFLAC 1.2.1 (UTC 2007-09-17)
Language                                 : Japanese
Default                                  : Yes
Forced                                   : No

Text
ID                                       : 3
Format                                   : ASS
Codec ID                                 : S_TEXT/ASS
Codec ID/Info                            : Advanced Sub Station Alpha
Duration                                 : 1 h 43 min
Bit rate                                 : 2 743 b/s
Count of elements                        : 12239
Compression mode                         : Lossless
Stream size                              : 2.03 MiB (0%)
Title                                    : (Modified) Commie + APTA-Scans
Language                                 : English
Default                                  : Yes
Forced                                   : No

Menu
00:00:00.000                             : en:Aniplex
00:00:06.006                             : en:Part A
00:18:22.601                             : en:Part B
00:32:18.269                             : en:Part C
00:43:38.616                             : en:Part D
00:55:03.717                             : en:Part E
01:10:36.232                             : en:Part F
01:18:34.334                             : en:Part G
01:32:18.783                             : en:Part H
01:39:11.904                             : en:ED
===
General
Unique ID                                : 199072364046563727003210550988689135690 (0x95C3F154E66FE8254FFAEAE62978584A)
Complete name                            : [CyC] Natsume Yuujinchou - Ishi Okoshi to Ayashiki Raihousha (BD 1080P 10bit x265 FLAC) [96D266EA].mkv
Format                                   : Matroska
Format version                           : Version 4
File size                                : 1.82 GiB
Duration                                 : 51 min 33 s
Overall bit rate mode                    : Variable
Overall bit rate                         : 5 053 kb/s
Movie name                               : The Stone Waker and the Strange Visitor
Encoded date                             : UTC 2021-11-28 22:49:24
Writing application                      : mkvmerge v55.0.0 ('Waiting For Space') 64-bit
Writing library                          : libebml v1.4.2 + libmatroska v1.6.4
Attachments                              : cormorant.infant-light.otf / BAARS___.TTF / Brush Strokes.ttf / FTLTLT.TTF / IgniteTheLight.ttf

Video
ID                                       : 1
Format                                   : HEVC
Format/Info                              : High Efficiency Video Coding
Format profile                           : Main 10@L5@Main
Codec ID                                 : V_MPEGH/ISO/HEVC
Duration                                 : 51 min 33 s
Bit rate                                 : 3 253 kb/s
Width                                    : 1 920 pixels
Height                                   : 1 080 pixels
Display aspect ratio                     : 16:9
Frame rate mode                          : Constant
Frame rate                               : 23.976 (24000/1001) FPS
Color space                              : YUV
Chroma subsampling                       : 4:2:0
Bit depth                                : 10 bits
Bits/(Pixel*Frame)                       : 0.065
Stream size                              : 1.17 GiB (64%)
Title                                    : LINK
Writing library                          : x265 3.5+1-ce882936d:[Windows][MSVC 1928][64 bit] 10bit
Encoding settings                        : cpuid=1111039 / frame-threads=5 / numa-pools=32 / wpp / no-pmode / no-pme / no-psnr / no-ssim / log-level=2 / input-csp=1 / input-res=1920x1080 / interlace=0 / total-frames=74168 / level-idc=0 / high-tier=1 / uhd-bd=0 / ref=6 / no-allow-non-conformance / no-repeat-headers / annexb / no-aud / no-hrd / info / hash=0 / no-temporal-layers / open-gop / min-keyint=1 / keyint=240 / gop-lookahead=0 / bframes=6 / b-adapt=2 / b-pyramid / bframe-bias=0 / rc-lookahead=60 / lookahead-slices=6 / scenecut=60 / hist-scenecut=0 / radl=0 / no-splice / no-intra-refresh / ctu=64 / min-cu-size=8 / no-rect / no-amp / max-tu-size=32 / tu-inter-depth=1 / tu-intra-depth=1 / limit-tu=0 / rdoq-level=2 / dynamic-rd=0.00 / no-ssim-rd / signhide / no-tskip / nr-intra=0 / nr-inter=0 / no-constrained-intra / strong-intra-smoothing / max-merge=5 / limit-refs=1 / no-limit-modes / me=2 / subme=2 / merange=92 / temporal-mvp / no-frame-dup / no-hme / weightp / weightb / no-analyze-src-pics / deblock=0:0 / no-sao / no-sao-non-deblock / rd=6 / selective-sao=0 / early-skip / rskip / no-fast-intra / no-tskip-fast / no-cu-lossless / b-intra / no-splitrd-skip / rdpenalty=0 / psy-rd=1.00 / psy-rdoq=1.00 / rd-refine / no-lossless / cbqpoffs=0 / crqpoffs=0 / rc=crf / crf=14.0 / qcomp=0.90 / qpstep=10 / stats-write=0 / stats-read=0 / ipratio=1.40 / pbratio=1.30 / aq-mode=2 / aq-strength=0.80 / cutree / zone-count=0 / no-strict-cbr / qg-size=32 / no-rc-grain / qpmax=69 / qpmin=0 / no-const-vbv / sar=0 / overscan=0 / videoformat=5 / range=0 / colorprim=2 / transfer=2 / colormatrix=2 / chromaloc=0 / display-window=0 / cll=0,0 / min-luma=0 / max-luma=1023 / log2-max-poc-lsb=8 / vui-timing-info / vui-hrd-info / slices=1 / no-opt-qp-pps / no-opt-ref-list-length-pps / no-multi-pass-opt-rps / scenecut-bias=0.05 / hist-threshold=0.03 / no-opt-cu-delta-qp / no-aq-motion / no-hdr10 / no-hdr10-opt / no-dhdr10-opt / no-idr-recovery-sei / analysis-reuse-level=0 / analysis-save-reuse-level=0 / analysis-load-reuse-level=0 / scale-factor=0 / refine-intra=0 / refine-inter=0 / refine-mv=1 / refine-ctu-distortion=0 / no-limit-sao / ctu-info=0 / no-lowpass-dct / refine-analysis-type=0 / copy-pic=1 / max-ausize-factor=1.0 / no-dynamic-refine / no-single-sei / no-hevc-aq / no-svt / no-field / qp-adaptation-range=1.00 / scenecut-aware-qp=0conformance-window-offsets / right=0 / bottom=0 / decoder-max-rate=0 / no-vbv-live-multi-pass
Language                                 : Japanese
Default                                  : Yes
Forced                                   : No

Audio
ID                                       : 3
Format                                   : FLAC
Format/Info                              : Free Lossless Audio Codec
Codec ID                                 : A_FLAC
Duration                                 : 51 min 33 s
Bit rate mode                            : Variable
Bit rate                                 : 1 797 kb/s
Channel(s)                               : 4 channels
Channel layout                           : L R C LFE
Sampling rate                            : 48.0 kHz
Frame rate                               : 11.719 FPS (4096 SPF)
Bit depth                                : 24 bits
Compression mode                         : Lossless
Stream size                              : 663 MiB (36%)
Writing library                          : libFLAC 1.3.3 (UTC 2019-08-04)
Language                                 : Japanese
Default                                  : Yes
Forced                                   : No

Text
ID                                       : 2
Format                                   : ASS
Codec ID                                 : S_TEXT/ASS
Codec ID/Info                            : Advanced Sub Station Alpha
Duration                                 : 51 min 11 s
Bit rate                                 : 266 b/s
Count of elements                        : 1079
Compression mode                         : Lossless
Stream size                              : 100.0 KiB (0%)
Title                                    : (Modified) Commie
Language                                 : English
Default                                  : Yes
Forced                                   : No

Menu
00:00:00.000                             : en:Title
00:00:11.011                             : en:Part A
00:11:51.044                             : en:Part B
00:23:16.061                             : en:Part C
00:33:11.072                             : en:Part D
00:46:16.080                             : en:ED